<?xml version="1.0" encoding="utf-8"?>
<?xml-stylesheet type="text/xsl" href="rss1.xsl"?>
<rss version="2.0" xmlns:atom="http://www.w3.org/2005/Atom" xmlns:content="http://purl.org/rss/1.0/modules/content/" xmlns:dc="http://purl.org/dc/elements/1.1/" xmlns:media="http://search.yahoo.com/mrss/">
<channel>
 <title>Getty</title>
 <link>http://www.gettyimg.com/</link>
 <atom:link href="http://www.gettyimg.com/" rel="self" type="application/rss+xml" />

 
                <item>
                <title><![CDATA[【HD Live Performances】WEB-RiP - Kylie.Minogue.Live.at.Glastonbury.2019.1080p.AMZN.WEB-DL.DDP2.0.H.264-mariellisaa]]></title>
                <link><![CDATA[https://sharemania.us/threads/kylie-minogue-live-at-glastonbury-2019-1080p-amzn-web-dl-ddp2-0-h-264-mariellisaa.229218/]]></link>
                <description><![CDATA[<article>
<blockquote class="messageText SelectQuoteContainer ugc baseHtml">
<img src="https://i.imgur.com/h4Ja247.jpg" class="bbCodeImage LbImage" alt="[​IMG]" data-url="https://i.imgur.com/h4Ja247.jpg" style=""><br>
<br>
<div class="ToggleTriggerAnchor bbCodeSpoilerContainer">
<button type="button" class="button bbCodeSpoilerButton ToggleTrigger Tooltip JsOnly" data-target="> .SpoilerTarget"><span>Spoiler: <span class="SpoilerTitle">MediaInfo</span></span></button>
<div class="SpoilerTarget bbCodeSpoilerText">General<br>
Complete name : D:\Kylie.Minogue.Live.at.Glastonbury.2019.1080p.AMZN.WEB-DL.DDP2.0.H.264.mp4<br>
Format : MPEG-4<br>
Format profile : Base Media<br>
Codec ID : isom (isom/dby1/iso2/avc1/mp41)<br>
File size : 6.72 GiB<br>
Duration : 1 h 20 min<br>
Overall bit rate mode : Variable<br>
Overall bit rate : 12.0 Mb/s<br>
Collection : Kylie Minogue - Live at Glastonbury<br>
Track name : Kylie Minogue - Live at Glastonbury<br>
Genre : Music Videos and Concerts;International<br>
Description : Kylie Ann Minogue is an Australian singer, songwriter and actress. Their debut album, Kylie, and the single 'I Should Be So Lucky' peaked at number one in the UK, and over the next two years, her first thirteen singles reached the top ten in the UK.<br>
Recorded date : 2019<br>
Writing application : Lavf60.3.100<br>
Cover : Yes<br>
<br>
Video<br>
ID : 1<br>
Format : AVC<br>
Format/Info : Advanced Video Codec<br>
Format profile : High@L4<br>
Format settings : CABAC / 4 Ref Frames<br>
Format settings, CABAC : Yes<br>
Format settings, Reference frames : 4 frames<br>
Codec ID : avc1<br>
Codec ID/Info : Advanced Video Coding<br>
Duration : 1 h 20 min<br>
Duration_LastFrame : -30 ms<br>
Bit rate : 11.8 Mb/s<br>
Width : 1 920 pixels<br>
Height : 1 080 pixels<br>
Display aspect ratio : 16:9<br>
Frame rate mode : Constant<br>
Frame rate : 25.000 FPS<br>
Color space : YUV<br>
Chroma subsampling : 4:2:0<br>
Bit depth : 8 bits<br>
Scan type : Progressive<br>
Bits/(Pixel*Frame) : 0.227<br>
Stream size : 6.59 GiB (98%)<br>
Color range : Limited<br>
Color primaries : BT.709<br>
Transfer characteristics : BT.709<br>
Matrix coefficients : BT.709<br>
Codec configuration box : avcC<br>
<br>
Audio<br>
ID : 3<br>
Format : E-AC-3<br>
Format/Info : Enhanced AC-3<br>
Commercial name : Dolby Digital Plus<br>
Codec ID : ec-3<br>
Duration : 1 h 20 min<br>
Bit rate mode : Constant<br>
Bit rate : 224 kb/s<br>
Channel(s) : 2 channels<br>
Channel layout : L R<br>
Sampling rate : 48.0 kHz<br>
Frame rate : 31.250 FPS (1536 SPF)<br>
Compression mode : Lossy<br>
Stream size : 128 MiB (2%)<br>
Language : English<br>
Service kind : Complete Main<br>
Default : Yes<br>
Alternate group : 1<br>
<br>
Text<br>
ID : 4<br>
Format : Timed Text<br>
Muxing mode : sbtl<br>
Codec ID : tx3g<br>
Duration : 1 h 19 min<br>
Bit rate mode : Variable<br>
Bit rate : 68 b/s<br>
Frame rate : 0.494 FPS<br>
Stream size : 39.8 KiB (0%)<br>
Title : English [CC]<br>
Language : English<br>
Default : Yes<br>
Forced : No<br>
Alternate group : 3<br>
<br>
General<br>
Complete name : D:\Kylie.Minogue.Live.at.Glastonbury.2019.1080p.AMZN.WEB-DL.DDP2.0.H.264.mp4<br>
Format : MPEG-4<br>
Format profile : Base Media<br>
Codec ID : isom (isom/dby1/iso2/avc1/mp41)<br>
File size : 6.72 GiB<br>
Duration : 1 h 20 min<br>
Overall bit rate mode : Variable<br>
Overall bit rate : 12.0 Mb/s<br>
Collection : Kylie Minogue - Live at Glastonbury<br>
Track name : Kylie Minogue - Live at Glastonbury<br>
Genre : Music Videos and Concerts;International<br>
Description : Kylie Ann Minogue is an Australian singer, songwriter and actress. Their debut album, Kylie, and the single 'I Should Be So Lucky' peaked at number one in the UK, and over the next two years, her first thirteen singles reached the top ten in the UK.<br>
Recorded date : 2019<br>
Writing application : Lavf60.3.100<br>
Cover : Yes<br>
<br>
Video<br>
ID : 1<br>
Format : AVC<br>
Format/Info : Advanced Video Codec<br>
Format profile : High@L4<br>
Format settings : CABAC / 4 Ref Frames<br>
Format settings, CABAC : Yes<br>
Format settings, Reference frames : 4 frames<br>
Codec ID : avc1<br>
Codec ID/Info : Advanced Video Coding<br>
Duration : 1 h 20 min<br>
Duration_LastFrame : -30 ms<br>
Bit rate : 11.8 Mb/s<br>
Width : 1 920 pixels<br>
Height : 1 080 pixels<br>
Display aspect ratio : 16:9<br>
Frame rate mode : Constant<br>
Frame rate : 25.000 FPS<br>
Color space : YUV<br>
Chroma subsampling : 4:2:0<br>
Bit depth : 8 bits<br>
Scan type : Progressive<br>
Bits/(Pixel*Frame) : 0.227<br>
Stream size : 6.59 GiB (98%)<br>
Color range : Limited<br>
Color primaries : BT.709<br>
Transfer characteristics : BT.709<br>
Matrix coefficients : BT.709<br>
Codec configuration box : avcC<br>
<br>
Audio<br>
ID : 3<br>
Format : E-AC-3<br>
Format/Info : Enhanced AC-3<br>
Commercial name : Dolby Digital Plus<br>
Codec ID : ec-3<br>
Duration : 1 h 20 min<br>
Bit rate mode : Constant<br>
Bit rate : 224 kb/s<br>
Channel(s) : 2 channels<br>
Channel layout : L R<br>
Sampling rate : 48.0 kHz<br>
Frame rate : 31.250 FPS (1536 SPF)<br>
Compression mode : Lossy<br>
Stream size : 128 MiB (2%)<br>
Language : English<br>
Service kind : Complete Main<br>
Default : Yes<br>
Alternate group : 1<br>
<br>
Text<br>
ID : 4<br>
Format : Timed Text<br>
Muxing mode : sbtl<br>
Codec ID : tx3g<br>
Duration : 1 h 19 min<br>
Bit rate mode : Variable<br>
Bit rate : 68 b/s<br>
Frame rate : 0.494 FPS<br>
Stream size : 39.8 KiB (0%)<br>
Title : English [CC]<br>
Language : English<br>
Default : Yes<br>
Forced : No<br>
Alternate group : 3</div>
</div><br>
<div class="bbCodeBlock bbCodeVfcHH HiddenContent">
<div class="attribution type">Hidden Content:</div>
<blockquote>You must either reply or click 'Like' to see the hidden information contained here.</blockquote>
</div>
<div class="messageTextEndMarker">&nbsp;</div>
</blockquote>
</article>]]></description>
                <author><![CDATA[mariellisaa]]></author>
                </item>

                
                <item>
                <title><![CDATA[【SD Live Performances】PACK - Taylor Swift - Live @ CMA Awards (2007, 2009, 2012, 2013)]]></title>
                <link><![CDATA[https://sharemania.us/threads/taylor-swift-live-cma-awards-2007-2009-2012-2013.229217/]]></link>
                <description><![CDATA[<article>
<blockquote class="messageText SelectQuoteContainer ugc baseHtml">
<div style="text-align: center"><br>
<div class="ToggleTriggerAnchor bbCodeSpoilerContainer">
<button type="button" class="button bbCodeSpoilerButton ToggleTrigger Tooltip JsOnly" data-target="> .SpoilerTarget"><span>Spoiler</span></button>
<div class="SpoilerTarget bbCodeSpoilerText">
<div class="bbCodeBlock bbCodeVfcHH HiddenContent">
<div class="attribution type">Hidden Content:</div>
<blockquote>You must either reply or click 'Like' to see the hidden information contained here.</blockquote>
</div></div>
</div></div>
<div class="messageTextEndMarker">&nbsp;</div>
</blockquote>
</article>]]></description>
                <author><![CDATA[iheartshania]]></author>
                </item>

                </channel></rss>